<svg width="111" height="52" viewBox="0 0 111 52" fill="none" xmlns="http://www.w3.org/2000/svg">
<path d="M1.5 17V5.57812H3.375V15.4062H8.22656V17H1.5ZM19.3919 17H12.9231V5.57812H19.3919V7.15625H14.7981V10.2578H19.1028V11.8281H14.7981V15.4141H19.3919V17ZM31.0494 17H24.5806V5.57812H31.0494V7.15625H26.4556V10.2578H30.7603V11.8281H26.4556V15.4141H31.0494V17ZM45.5116 11.1797C45.5116 12.4661 45.272 13.5417 44.7928 14.4062C44.3136 15.2656 43.6183 15.9141 42.7069 16.3516C41.7954 16.7839 40.6965 17 39.41 17H36.2381V5.57812H39.7537C40.936 5.57812 41.9569 5.79167 42.8162 6.21875C43.6756 6.64062 44.3397 7.26823 44.8084 8.10156C45.2772 8.92969 45.5116 9.95573 45.5116 11.1797ZM43.5584 11.2344C43.5584 10.2969 43.41 9.52604 43.1131 8.92188C42.8215 8.31771 42.3892 7.86979 41.8162 7.57812C41.2485 7.28125 40.548 7.13281 39.7147 7.13281H38.1131V15.4297H39.4412C40.8215 15.4297 41.8527 15.0781 42.535 14.375C43.2173 13.6719 43.5584 12.625 43.5584 11.2344ZM57.2863 13.8906C57.2863 14.5677 57.1196 15.151 56.7863 15.6406C56.4581 16.1302 55.9842 16.5052 55.3644 16.7656C54.7498 17.026 54.0154 17.1562 53.1613 17.1562C52.7446 17.1562 52.3461 17.1328 51.9659 17.0859C51.5857 17.0391 51.2264 16.9714 50.8878 16.8828C50.5545 16.7891 50.2498 16.6771 49.9738 16.5469V14.7812C50.4373 14.9844 50.9555 15.1693 51.5284 15.3359C52.1014 15.4974 52.6847 15.5781 53.2784 15.5781C53.7628 15.5781 54.1639 15.5156 54.4816 15.3906C54.8045 15.2604 55.0441 15.0781 55.2003 14.8438C55.3566 14.6042 55.4347 14.3255 55.4347 14.0078C55.4347 13.6693 55.3435 13.3828 55.1613 13.1484C54.979 12.9141 54.7029 12.7005 54.3331 12.5078C53.9685 12.3099 53.5102 12.099 52.9581 11.875C52.5831 11.724 52.2238 11.5521 51.88 11.3594C51.5415 11.1667 51.2394 10.9401 50.9738 10.6797C50.7081 10.4193 50.4972 10.112 50.3409 9.75781C50.1899 9.39844 50.1144 8.97656 50.1144 8.49219C50.1144 7.84635 50.268 7.29427 50.5753 6.83594C50.8878 6.3776 51.3253 6.02604 51.8878 5.78125C52.4555 5.53646 53.117 5.41406 53.8722 5.41406C54.4711 5.41406 55.0336 5.47656 55.5597 5.60156C56.0909 5.72656 56.6118 5.90365 57.1222 6.13281L56.5284 7.64062C56.0597 7.44792 55.604 7.29427 55.1613 7.17969C54.7238 7.0651 54.2758 7.00781 53.8175 7.00781C53.4217 7.00781 53.0857 7.06771 52.8097 7.1875C52.5336 7.30729 52.3227 7.47656 52.1769 7.69531C52.0363 7.90885 51.9659 8.16406 51.9659 8.46094C51.9659 8.79427 52.0467 9.07552 52.2081 9.30469C52.3748 9.52865 52.63 9.73438 52.9738 9.92188C53.3227 10.1094 53.7706 10.3177 54.3175 10.5469C54.9477 10.8073 55.4816 11.0807 55.9191 11.3672C56.3618 11.6536 56.7003 11.9974 56.9347 12.3984C57.1691 12.7943 57.2863 13.2917 57.2863 13.8906Z" fill="black"/>
<path d="M0.24 46L1.632 41.464V39.136L3.168 38.416L6.288 29.032H11.016L14.88 39.784L16.728 43.192V46H13.44L12 41.68H5.016L3.744 46H0.24ZM6.36 38.704H10.92L8.856 32.2H8.352L6.36 38.704ZM22.8488 46.24C21.8728 46.24 20.9928 46.056 20.2088 45.688C19.4248 45.304 18.8088 44.68 18.3608 43.816C17.9128 42.952 17.6888 41.792 17.6888 40.336C17.6888 38.848 17.9368 37.68 18.4328 36.832C18.9448 35.968 19.6248 35.352 20.4728 34.984C21.3368 34.616 22.2888 34.432 23.3288 34.432C24.0648 34.432 24.6088 34.464 24.9608 34.528C25.3288 34.576 25.6408 34.632 25.8968 34.696L27.7688 36.808L26.3288 38.704L23.8088 37.072C23.0088 37.072 22.3848 37.352 21.9368 37.912C21.4888 38.472 21.2648 39.28 21.2648 40.336C21.2648 41.456 21.5048 42.28 21.9848 42.808C22.4648 43.336 23.1528 43.6 24.0488 43.6C24.6408 43.6 25.1688 43.536 25.6328 43.408C26.1128 43.264 26.5128 43.112 26.8328 42.952C27.1528 42.776 27.3768 42.648 27.5048 42.568V45.304C27.1048 45.512 26.5208 45.72 25.7528 45.928C25.0008 46.136 24.0328 46.24 22.8488 46.24ZM33.6064 46.24C32.5184 46.24 31.7264 46 31.2304 45.52C30.7344 45.04 30.4864 44.312 30.4864 43.336V36.904H28.9744V35.344L30.2464 34.168L31.9504 31.192H33.8224V34.672H36.9424V37.072H33.8224V43.648L36.9424 43.624V45.52C36.9424 45.52 36.8144 45.584 36.5584 45.712C36.3024 45.824 35.9264 45.936 35.4304 46.048C34.9504 46.176 34.3424 46.24 33.6064 46.24ZM40.5497 33.472L37.9817 30.904L40.5497 28.336L43.0937 30.904L40.5497 33.472ZM38.8697 46V38.056L38.3657 36.136L38.8457 34.672H42.2057V46H38.8697ZM47.4137 46L44.3897 37.792L43.9097 34.672H47.5097L49.3097 42.64H49.7897L51.6137 34.672H55.1897L54.7097 37.792L51.4937 46H47.4137ZM61.3153 46.24C60.2753 46.24 59.3473 46.056 58.5313 45.688C57.7153 45.32 57.0753 44.704 56.6113 43.84C56.1473 42.976 55.9153 41.808 55.9153 40.336C55.9153 38.912 56.1633 37.768 56.6593 36.904C57.1553 36.04 57.8113 35.416 58.6273 35.032C59.4433 34.632 60.3393 34.432 61.3153 34.432C62.3873 34.432 63.2273 34.552 63.8353 34.792C64.4593 35.032 64.9313 35.264 65.2513 35.488L66.4513 39.304L65.9713 40.792H59.2513C59.3473 41.64 59.6513 42.32 60.1633 42.832C60.6753 43.344 61.4593 43.6 62.5153 43.6C63.3793 43.6 64.0753 43.496 64.6033 43.288C65.1473 43.08 65.5233 42.92 65.7313 42.808V45.304C65.2513 45.56 64.6353 45.784 63.8833 45.976C63.1473 46.152 62.2913 46.24 61.3153 46.24ZM59.2273 39.256L62.8273 38.776L62.4673 37C62.3553 36.936 62.1953 36.888 61.9873 36.856C61.7953 36.824 61.6193 36.808 61.4593 36.808C60.7393 36.808 60.1873 37.064 59.8033 37.576C59.4193 38.072 59.2273 38.632 59.2273 39.256ZM68.6644 46V32.872L68.4244 30.472L68.6644 29.008H72.0244V36.016H78.9604V29.008H82.3204V38.032L82.5604 39.688V46H78.9604V39.16H72.0244V41.104L72.2644 46H68.6644ZM88.56 46.24C87.6 46.24 86.856 46.056 86.328 45.688C85.816 45.32 85.456 44.792 85.248 44.104C85.056 43.4 84.96 42.56 84.96 41.584V34.648H88.32V41.68C88.32 42.336 88.44 42.816 88.68 43.12C88.936 43.424 89.36 43.576 89.952 43.576C90.704 43.576 91.296 43.288 91.728 42.712C92.176 42.136 92.4 41.464 92.4 40.696V34.648H95.76V42.136L96.264 44.536L95.76 46H92.664V44.824L92.424 44.704C92.216 44.912 91.912 45.136 91.512 45.376C91.128 45.616 90.68 45.824 90.168 46C89.672 46.16 89.136 46.24 88.56 46.24ZM105.187 46C104.419 46 103.803 45.936 103.339 45.808C102.875 45.664 102.539 45.528 102.331 45.4C102.139 45.256 102.043 45.184 102.043 45.184V45.784H98.6828V32.632L98.1788 30.232L98.6828 28.792H102.043V32.656L101.803 35.368L102.043 35.488C102.363 35.184 102.755 34.896 103.219 34.624C103.699 34.336 104.355 34.192 105.187 34.192C106.611 34.192 107.723 34.648 108.523 35.56C109.339 36.472 109.747 37.912 109.747 39.88C109.747 41.352 109.539 42.544 109.123 43.456C108.723 44.352 108.179 45 107.491 45.4C106.803 45.8 106.035 46 105.187 46ZM103.651 43.456C104.291 43.456 104.787 43.296 105.139 42.976C105.507 42.656 105.763 42.24 105.907 41.728C106.067 41.216 106.147 40.664 106.147 40.072C106.147 39.496 106.083 38.968 105.955 38.488C105.843 37.992 105.627 37.6 105.307 37.312C104.987 37.008 104.515 36.856 103.891 36.856L102.043 37.36V43.144C102.043 43.144 102.211 43.2 102.547 43.312C102.883 43.408 103.251 43.456 103.651 43.456Z" fill="black"/>
</svg>
